# xmcd
#
# Track frame offsets: 
#        150
#        10951
#        22404
#        36188
#        46341
#        59486
#        69437
#        79246
#        89699
#        101028
#        113224
#        124635
#        138507
#        151676
#        163137
#        179594
#        191026
#        202510
#        212663
#        224391
#
# Disc length: 3157 seconds
#
# Revision: 2
# Processed by: cddbd v1.5.2PL0 Copyright (c) Steve Scherf et al.
# Submitted via: ExactAudioCopy v1.0b1
#
DISCID=240c5314
DTITLE=Barbara Lynn - Best Of Barbara Lynn
DYEAR=1994
DGENRE=Blues
TTITLE0=This Is The Thanks I Get
TTITLE1=Ring Telephone Ring
TTITLE2=You'll Lose A Good Thing
TTITLE3=Maybe We Can Slip Away
TTITLE4=Take Your Love And Run
TTITLE5=Only You Know How To Love Me
TTITLE6=Sure Is Worth It
TTITLE7=You're Losing Me
TTITLE8=Suffern' City
TTITLE9=Multiplying Pain
TTITLE10=Why Can't You Love Me
TTITLE11=Until Then, I'll Suffer
TTITLE12=He Ain't Gonna Do Right
TTITLE13=Love Ain't Never Hurt Nobody
TTITLE14=You're Gonna See A Lot More (Of My Leaving)
TTITLE15=I'm A One Man Woman
TTITLE16=You Better Quit It
TTITLE17=(Daddy Hot Stuff) You're Too Hot To Hold
TTITLE18=You Make Me So Hot
TTITLE19=It Ain't Good To Be Too Good
EXTD=
EXTT0=
EXTT1=
EXTT2=
EXTT3=
EXTT4=
EXTT5=
EXTT6=
EXTT7=
EXTT8=
EXTT9=
EXTT10=
EXTT11=
EXTT12=
EXTT13=
EXTT14=
EXTT15=
EXTT16=
EXTT17=
EXTT18=
EXTT19=
PLAYORDER=
